#N canvas 421 406 655 494 10;
#X obj 29 157 bng 15 250 50 0 empty empty empty 17 7 0 10 -262144 -1
-1;
#X obj 49 129 netreceive 3012;
#X obj 49 155 print 3012;
#X obj 29 106 bng 15 250 50 0 empty empty empty 17 7 0 10 -262144 -1
-1;
#X obj 49 80 netreceive -u 3008;
#X obj 49 105 print 3008;
#X obj 278 201 netsend;
#X floatatom 278 223 5 0 0 0 - - -, f 5;
#X floatatom 324 223 5 0 0 0 - - -, f 5;
#X msg 264 78 disconnect \, connect localhost 3015;
#X msg 298 132 send 1 2 3 4;
#X msg 308 154 send 1 2 3 4 5;
#X msg 290 110 send 5 4 3 2 1 2 3;
#X text 254 51 click to connect to external receiver;
#X obj 50 184 netreceive -u -b 3003;
#X obj 50 211 print udp-binary;
#X obj 30 213 bng 15 250 50 0 empty empty empty 17 7 0 10 -262144 -1
-1;
#X obj 476 330 notein;
#X obj 476 352 pack 0 0 0;
#X obj 476 374 print notein;
#X obj 188 441 *~;
#X obj 188 463 dac~;
#X obj 208 414 line~;
#X obj 189 367 osc~ 440;
#X msg 264 384 1 \, 0 300;
#X obj 190 335 mtof;
#X msg 147 287 60;
#X obj 214 307 t b a;
#X msg 191 276 61;
#X connect 1 0 0 0;
#X connect 1 0 2 0;
#X connect 4 0 3 0;
#X connect 4 0 5 0;
#X connect 6 0 7 0;
#X connect 6 1 8 0;
#X connect 9 0 6 0;
#X connect 10 0 6 0;
#X connect 11 0 6 0;
#X connect 12 0 6 0;
#X connect 14 0 15 0;
#X connect 14 0 16 0;
#X connect 17 0 18 0;
#X connect 17 1 18 1;
#X connect 17 2 18 2;
#X connect 18 0 19 0;
#X connect 20 0 21 0;
#X connect 22 0 20 1;
#X connect 23 0 20 0;
#X connect 24 0 22 0;
#X connect 25 0 23 0;
#X connect 26 0 27 0;
#X connect 27 0 24 0;
#X connect 27 1 25 0;
#X connect 28 0 27 0;
